# xmcd CD database file
#
# Track frame offsets:
#	150
#	17835
#	33122
#	45569
#	63088
#	79332
#	93373
#	109154
#	131219
#	145069
#
# Disc length: 2366 seconds
#
# Revision: 1
# Processed by: cddbd v1.5.2PL0 Copyright (c) Steve Scherf et al.
# Submitted via: CDex 1.70beta2
#
DISCID=7e093c0a
DTITLE=Dave Insley - West Texas Wine
DYEAR=2008
DGENRE=Country
TTITLE0=Beatin' Ya Down
TTITLE1=West Texas Wine
TTITLE2=Come See What's Left Of Your Man
TTITLE3=Geneva's Gonna Leave Yy
TTITLE4=Drinkin' For Two
TTITLE5=Ol' What's Her Name
TTITLE6=Waitin' Where She Hides
TTITLE7=Everything's Broken Again
TTITLE8=Exit 93
TTITLE9=Don't Take It Away
EXTD=YEAR: 2008
EXTT0=
EXTT1=
EXTT2=
EXTT3=
EXTT4=
EXTT5=
EXTT6=
EXTT7=
EXTT8=
EXTT9=
PLAYORDER=
